<svg width="812" height="577" viewBox="0 0 812 577" fill="none" xmlns="http://www.w3.org/2000/svg">
<path d="M665.14 97.718C665.14 93.65 664.667 89.695 663.8 85.89L677.036 74.934L664.297 52.87L648.184 58.857C642.405 53.487 635.432 49.387 627.7 47.01L624.832 30.085H599.355L596.487 47.01C588.755 49.387 581.782 53.487 576.003 58.857L559.89 52.87L547.151 74.934L560.387 85.89C559.52 89.695 559.047 93.65 559.047 97.718C559.047 101.786 559.52 105.741 560.387 109.547L547.151 120.503L559.89 142.567L576.003 136.58C581.782 141.95 588.755 146.05 596.487 148.427L599.355 165.352H624.832L627.7 148.427C635.432 146.05 642.405 141.95 648.184 136.58L664.297 142.567L677.036 120.503L663.8 109.547C664.667 105.741 665.14 101.786 665.14 97.718ZM612.094 121.944C598.714 121.944 587.868 111.098 587.868 97.718C587.868 84.338 598.714 73.492 612.094 73.492C625.474 73.492 636.32 84.338 636.32 97.718C636.321 111.098 625.474 121.944 612.094 121.944Z" fill="#004688"/>
<path d="M753.353 56.34C751.375 54.362 749.221 52.668 746.949 51.239L748.058 39.474L731.133 34.939L726.208 45.687C720.786 45.886 715.401 47.283 710.485 49.887L700.859 43.051L688.469 55.441L695.305 65.067C692.701 69.983 691.304 75.368 691.105 80.79L680.357 85.714L684.892 102.639L696.657 101.53C698.086 103.802 699.779 105.956 701.758 107.934C703.736 109.912 705.89 111.606 708.162 113.035L707.053 124.8L723.978 129.335L728.903 118.588C734.325 118.389 739.71 116.992 744.627 114.388L754.253 121.224L766.643 108.834L759.807 99.208C762.411 94.292 763.808 88.907 764.008 83.485L774.756 78.561L770.221 61.636L758.456 62.745C757.025 60.472 755.332 58.319 753.353 56.34ZM739.338 93.92C732.831 100.427 722.281 100.427 715.774 93.92C709.267 87.413 709.267 76.863 715.774 70.356C722.281 63.849 732.831 63.849 739.338 70.356C745.844 76.863 745.844 87.413 739.338 93.92Z" fill="#004688"/>
<path d="M703.899 143.387C701.768 142.943 699.645 142.759 697.558 142.798L693.263 134.67L680.317 138.935L681.695 148.027C678.252 150.468 675.344 153.673 673.255 157.463L664.078 157.119L661.298 170.463L669.85 173.811C670.251 178.12 671.638 182.219 673.82 185.832L668.927 193.618L679.093 202.697L686.275 196.96C688.174 197.829 690.193 198.509 692.324 198.952C694.455 199.396 696.578 199.579 698.665 199.54L702.96 207.668L715.906 203.403L714.528 194.311C717.971 191.87 720.879 188.665 722.968 184.875L732.145 185.219L734.924 171.875L726.372 168.526C725.971 164.217 724.584 160.118 722.402 156.505L727.296 148.719L717.129 139.64L709.947 145.377C708.05 144.51 706.03 143.83 703.899 143.387ZM710.801 173.813C709.341 180.821 702.477 185.318 695.469 183.859C688.461 182.399 683.964 175.535 685.423 168.528C686.883 161.52 693.747 157.023 700.755 158.482C707.763 159.941 712.261 166.805 710.801 173.813Z" fill="#004688"/>
<path d="M157.454 160.74C157.454 156.672 156.981 152.717 156.114 148.912L169.35 137.956L156.612 115.892L140.499 121.879C134.72 116.509 127.747 112.409 120.015 110.032L117.147 93.107H91.67L88.802 110.032C81.07 112.409 74.097 116.509 68.318 121.879L52.205 115.892L39.466 137.956L52.702 148.912C51.835 152.717 51.362 156.672 51.362 160.74C51.362 164.808 51.835 168.763 52.702 172.569L39.466 183.525L52.205 205.589L68.318 199.602C74.097 204.972 81.07 209.072 88.802 211.449L91.67 228.374H117.147L120.015 211.449C127.747 209.072 134.72 204.972 140.499 199.602L156.612 205.589L169.35 183.525L156.114 172.569C156.98 168.763 157.454 164.808 157.454 160.74ZM104.408 184.967C91.028 184.967 80.182 174.12 80.182 160.74C80.182 147.36 91.028 136.514 104.408 136.514C117.788 136.514 128.634 147.36 128.634 160.74C128.634 174.12 117.787 184.967 104.408 184.967Z" fill="#004688"/>
<path d="M215.337 76.816C215.337 74.018 215.011 71.298 214.415 68.681L223.518 61.146L214.757 45.971L203.675 50.089C199.7 46.396 194.904 43.576 189.587 41.941L187.614 30.301H170.092L168.12 41.941C162.802 43.576 158.007 46.396 154.032 50.089L142.95 45.971L134.189 61.146L143.292 68.681C142.695 71.298 142.37 74.018 142.37 76.816C142.37 79.614 142.696 82.334 143.292 84.951L134.189 92.486L142.95 107.661L154.032 103.543C158.007 107.236 162.803 110.056 168.12 111.691L170.092 123.331H187.614L189.587 111.691C194.905 110.056 199.7 107.236 203.675 103.543L214.757 107.661L223.518 92.486L214.415 84.951C215.011 82.334 215.337 79.614 215.337 76.816ZM178.853 93.478C169.651 93.478 162.191 86.018 162.191 76.816C162.191 67.614 169.651 60.154 178.853 60.154C188.055 60.154 195.515 67.614 195.515 76.816C195.516 86.019 188.056 93.478 178.853 93.478Z" fill="#004688"/>
<path d="M60.7159 294.769H56.468V301.85H60.7159V294.769Z" fill="#1A7FD3"/>
<path d="M47.213 476.734H33.262V472.486H47.213V476.734ZM20.707 476.734H9.284C8.176 476.734 7.09402 476.539 6.06702 476.156L7.55402 472.176C8.10402 472.382 8.687 472.486 9.284 472.486H20.707V476.734ZM4.328 463.575H0.0800171V449.624H4.328V463.575ZM4.328 437.069H0.0800171V423.118H4.328V437.069ZM4.328 410.563H0.0800171V396.613H4.328V410.563ZM4.328 384.058H0.0800171V370.107H4.328V384.058ZM5.42999 359.254L2.12903 356.58C3.88703 354.41 6.49597 353.166 9.28497 353.166H16.927V357.414H9.28497C7.78297 357.414 6.37699 358.084 5.42999 359.254ZM43.431 357.414H29.481V353.166H43.431V357.414ZM56.948 355.637L54.438 352.21C55.728 351.265 56.467 349.806 56.467 348.209V340.91H60.715V348.209C60.716 351.133 59.307 353.91 56.948 355.637ZM60.7159 328.355H56.468V314.404H60.7159V328.355Z" fill="#1A7FD3"/>
<path d="M66.911 472.486H59.8311V476.734H66.911V472.486Z" fill="#1A7FD3"/>
<path d="M88.152 243.622H83.9041V250.702H88.152V243.622Z" fill="#1A7FD3"/>
<path d="M88.152 231.262H83.9041V217.528H88.152V231.262ZM88.152 205.168H83.9041V191.435H88.152V205.168ZM88.152 179.075H83.9041V165.342H88.152V179.075ZM88.152 152.981H83.9041V139.248H88.152V152.981ZM88.152 126.888H83.9041V113.155H88.152V126.888ZM88.152 100.795H83.9041V87.061H88.152V100.795ZM91.7729 79.122L90.629 75.03C91.433 74.806 92.267 74.692 93.108 74.692H104.911V78.94H93.108C92.654 78.94 92.2049 79.001 91.7729 79.122ZM339.751 78.94H326.018V74.692H339.751V78.94ZM313.658 78.94H299.925V74.692H313.658V78.94ZM287.565 78.94H273.831V74.692H287.565V78.94ZM261.471 78.94H247.737V74.692H261.471V78.94ZM235.378 78.94H221.645V74.692H235.378V78.94ZM209.285 78.94H195.552V74.692H209.285V78.94ZM183.191 78.94H169.458V74.692H183.191V78.94ZM157.098 78.94H143.365V74.692H157.098V78.94ZM131.005 78.94H117.271V74.692H131.005V78.94Z" fill="#1A7FD3"/>
<path d="M359.212 74.692H352.132V78.94H359.212V74.692Z" fill="#1A7FD3"/>
<path d="M757.289 174.837H753.041V162.446H757.289V174.837ZM757.289 149.701H753.041V135.54H757.289V149.701ZM757.289 122.796H753.041V108.635H757.289V122.796ZM757.289 95.891H753.041V81.73H757.289V95.891ZM747.334 78.94H733.173V74.692H747.334V78.94ZM720.429 78.94H706.268V74.692H720.429V78.94ZM693.523 78.94H679.362V74.692H693.523V78.94ZM666.618 78.94H652.457V74.692H666.618V78.94ZM639.713 78.94H625.552V74.692H639.713V78.94ZM612.807 78.94H598.646V74.692H612.807V78.94ZM585.902 78.94H571.741V74.692H585.902V78.94ZM558.996 78.94H544.835V74.692H558.996V78.94ZM532.091 78.94H517.93V74.692H532.091V78.94ZM505.186 78.94H491.025V74.692H505.186V78.94Z" fill="#1A7FD3"/>
<path d="M737.05 301.93H732.802V287.769H737.05V301.93ZM737.05 275.024H732.802V260.863H737.05V275.024ZM757.289 260.635H745.317V256.387H753.04V254.199H757.288L757.289 260.635ZM757.289 241.453H753.041V227.292H757.289V241.453Z" fill="#1A7FD3"/>
<path d="M526.427 548.125H299.855V559.453H526.427V548.125Z" fill="#1A7FD3"/>
<path d="M482.617 548.125H343.665L362.74 482.986H463.542L482.617 548.125Z" fill="#66AFF2"/>
<path d="M463.542 482.986H362.74L356.727 503.519H469.554L463.542 482.986Z" fill="#0067BD"/>
<path d="M679.363 104.895C679.363 97.074 673.023 90.734 665.202 90.734H161.08C153.259 90.734 146.919 97.074 146.919 104.895V426.343H679.362L679.363 104.895Z" fill="#1A7FD3"/>
<path d="M152.584 426.343V104.895C152.584 100.21 156.395 96.399 161.08 96.399H665.202C669.887 96.399 673.698 100.21 673.698 104.895V426.343H152.584Z" fill="#201D2C"/>
<path d="M146.919 426.343V468.825C146.919 476.646 153.259 482.986 161.08 482.986H665.202C673.023 482.986 679.363 476.646 679.363 468.825V426.343H146.919Z" fill="#1A7FD3"/>
<path d="M413.141 466.937C419.919 466.937 425.414 461.442 425.414 454.664C425.414 447.886 419.919 442.391 413.141 442.391C406.363 442.391 400.868 447.886 400.868 454.664C400.868 461.442 406.363 466.937 413.141 466.937Z" fill="#66AFF2"/>
<path d="M660.953 109.143H165.328V126.136H660.953V109.143Z" fill="#66B1F6"/>
<path d="M660.953 126.136H165.328V413.599H660.953V126.136Z" fill="white"/>
<path d="M175.734 121.828C178.048 121.828 179.923 119.953 179.923 117.639C179.923 115.325 178.048 113.45 175.734 113.45C173.42 113.45 171.545 115.325 171.545 117.639C171.545 119.953 173.42 121.828 175.734 121.828Z" fill="#F4579C"/>
<path d="M191.231 117.639C191.231 119.953 189.355 121.828 187.042 121.828C184.728 121.828 182.853 119.953 182.853 117.639C182.853 115.325 184.728 113.45 187.042 113.45C189.355 113.45 191.231 115.326 191.231 117.639Z" fill="white"/>
<path d="M202.538 117.639C202.538 119.953 200.663 121.828 198.349 121.828C196.036 121.828 194.16 119.953 194.16 117.639C194.16 115.325 196.036 113.45 198.349 113.45C200.662 113.45 202.538 115.326 202.538 117.639Z" fill="#0067BF"/>
<path d="M446.885 267.23H191.992C188.082 267.23 184.912 264.06 184.912 260.15V148.867C184.912 144.957 188.082 141.787 191.992 141.787H446.885C450.795 141.787 453.965 144.957 453.965 148.867V260.15C453.965 264.06 450.795 267.23 446.885 267.23Z" fill="#66B1F6"/>
<path d="M556.4 200.917H469.548C465.638 200.917 462.468 197.747 462.468 193.837V148.868C462.468 144.958 465.638 141.788 469.548 141.788H556.4C560.31 141.788 563.48 144.958 563.48 148.868V193.837C563.48 197.747 560.311 200.917 556.4 200.917Z" fill="#0067BD"/>
<path d="M534.425 167.238L522.111 184.708L500.66 154.274L474.907 190.813H517.809H526.414H551.041L534.425 167.238Z" fill="#66B1F6"/>
<path d="M528.374 157.638C528.374 160.815 525.798 163.391 522.621 163.391C519.444 163.391 516.868 160.815 516.868 157.638C516.868 154.461 519.444 151.885 522.621 151.885C525.798 151.885 528.374 154.461 528.374 157.638Z" fill="#66B1F6"/>
<path d="M556.4 267.23H469.548C465.638 267.23 462.468 264.06 462.468 260.15V215.18C462.468 211.27 465.638 208.1 469.548 208.1H556.4C560.31 208.1 563.48 211.27 563.48 215.18V260.149C563.48 264.06 560.311 267.23 556.4 267.23Z" fill="#C0E9FF"/>
<path d="M512.974 259.613C525.096 259.613 534.923 249.786 534.923 237.664C534.923 225.542 525.096 215.715 512.974 215.715C500.852 215.715 491.025 225.542 491.025 237.664C491.025 249.786 500.852 259.613 512.974 259.613Z" fill="white"/>
<path d="M525.788 237.664L504.881 225.594V249.735L525.788 237.664Z" fill="#C0E9FF"/>
<path d="M637.234 267.23H580.237C576.326 267.23 573.157 264.06 573.157 260.15V148.867C573.157 144.957 576.327 141.787 580.237 141.787H637.234C641.144 141.787 644.314 144.957 644.314 148.867V260.15C644.315 264.06 641.145 267.23 637.234 267.23Z" fill="#4987E5"/>
<path d="M628.17 188.809L617.231 177.87C621.989 171.636 621.536 162.671 615.841 156.976C609.635 150.77 599.538 150.77 593.332 156.976C587.127 163.181 587.127 173.279 593.332 179.485C599.027 185.18 607.992 185.633 614.226 180.875L625.165 191.814C625.995 192.644 627.34 192.643 628.169 191.814C629 190.984 629 189.639 628.17 188.809ZM612.838 176.48C608.289 181.029 600.887 181.029 596.338 176.48C591.788 171.931 591.788 164.528 596.337 159.979C600.886 155.43 608.288 155.43 612.838 159.979C617.387 164.529 617.387 171.931 612.838 176.48Z" fill="white"/>
<path d="M608.736 202.342H582.126V207.062H608.736V202.342Z" fill="#0067BD"/>
<path d="M635.642 211.005H582.126V213.858H635.642V211.005Z" fill="#0067BD"/>
<path d="M635.642 215.961H582.126V218.814H635.642V215.961Z" fill="#0067BD"/>
<path d="M615.404 220.917H582.126V223.77H615.404V220.917Z" fill="#0067BD"/>
<path d="M635.642 228.351H582.126V231.204H635.642V228.351Z" fill="#0067BD"/>
<path d="M635.642 233.307H582.126V236.16H635.642V233.307Z" fill="#0067BD"/>
<path d="M635.642 238.264H582.126V241.117H635.642V238.264Z" fill="#0067BD"/>
<path d="M595.431 243.22H582.126V246.073H595.431V243.22Z" fill="#0067BD"/>
<path d="M635.642 250.702H582.126V253.555H635.642V250.702Z" fill="#0067BD"/>
<path d="M624.608 255.658H582.126V258.511H624.608V255.658Z" fill="#0067BD"/>
<path d="M228.697 278.554H184.911V281.406H228.697V278.554Z" fill="#66B1F6"/>
<path d="M319.438 284.041H184.911V286.894H319.438V284.041Z" fill="#66B1F6"/>
<path d="M319.438 289.529H184.911V292.382H319.438V289.529Z" fill="#66B1F6"/>
<path d="M319.438 295.016H184.911V297.868H319.438V295.016Z" fill="#66B1F6"/>
<path d="M281.8 300.503H184.911V303.356H281.8V300.503Z" fill="#66B1F6"/>
<path d="M424.47 278.554H345.878V281.406H424.47V278.554Z" fill="#66B1F6"/>
<path d="M480.405 284.041H345.878V286.894H480.405V284.041Z" fill="#66B1F6"/>
<path d="M375.97 289.529H345.878V292.382H375.97V289.529Z" fill="#66B1F6"/>
<path d="M480.405 295.016H345.878V297.868H480.405V295.016Z" fill="#66B1F6"/>
<path d="M397.211 300.503H345.878V303.356H397.211V300.503Z" fill="#66B1F6"/>
<path d="M563.481 278.554H506.844V281.406H563.481V278.554Z" fill="#66B1F6"/>
<path d="M641.371 284.041H506.844V286.894H641.371V284.041Z" fill="#66B1F6"/>
<path d="M641.371 289.529H506.844V292.382H641.371V289.529Z" fill="#66B1F6"/>
<path d="M641.371 295.016H506.844V297.868H641.371V295.016Z" fill="#66B1F6"/>
<path d="M534.923 300.503H506.844V303.356H534.923V300.503Z" fill="#66B1F6"/>
<path d="M270.59 375.735H184.911V378.588H270.59V375.735Z" fill="#66B1F6"/>
<path d="M319.438 381.222H184.911V384.075H319.438V381.222Z" fill="#66B1F6"/>
<path d="M319.438 386.71H184.911V389.563H319.438V386.71Z" fill="#66B1F6"/>
<path d="M319.438 392.197H184.911V395.049H319.438V392.197Z" fill="#66B1F6"/>
<path d="M227.75 397.684H184.911V400.537H227.75V397.684Z" fill="#66B1F6"/>
<path d="M372.547 375.735H345.878V378.588H372.547V375.735Z" fill="#66B1F6"/>
<path d="M480.405 381.222H345.878V384.075H480.405V381.222Z" fill="#66B1F6"/>
<path d="M480.405 386.71H345.878V389.563H480.405V386.71Z" fill="#66B1F6"/>
<path d="M480.405 392.197H345.878V395.049H480.405V392.197Z" fill="#66B1F6"/>
<path d="M433.674 397.684H345.878V400.537H433.674V397.684Z" fill="#66B1F6"/>
<path d="M579.53 375.735H506.844V378.588H579.53V375.735Z" fill="#66B1F6"/>
<path d="M641.371 381.222H506.844V384.075H641.371V381.222Z" fill="#66B1F6"/>
<path d="M641.371 386.71H506.844V389.563H641.371V386.71Z" fill="#66B1F6"/>
<path d="M641.371 392.197H506.844V395.049H641.371V392.197Z" fill="#66B1F6"/>
<path d="M594.044 397.684H506.844V400.537H594.044V397.684Z" fill="#66B1F6"/>
<path d="M322.512 367.777H191.991C188.081 367.777 184.911 364.607 184.911 360.696V322.462C184.911 318.551 188.081 315.381 191.991 315.381H322.512C326.422 315.381 329.592 318.551 329.592 322.462V360.696C329.593 364.607 326.423 367.777 322.512 367.777Z" fill="#4987E5"/>
<path d="M478.401 367.777H347.88C343.97 367.777 340.8 364.607 340.8 360.696V322.462C340.8 318.551 343.97 315.381 347.88 315.381H478.401C482.311 315.381 485.481 318.551 485.481 322.462V360.696C485.482 364.607 482.312 367.777 478.401 367.777Z" fill="#4987E5"/>
<path d="M634.29 367.777H503.77C499.86 367.777 496.69 364.607 496.69 360.696V322.462C496.69 318.551 499.86 315.381 503.77 315.381H634.291C638.202 315.381 641.371 318.551 641.371 322.462V360.696C641.371 364.607 638.201 367.777 634.29 367.777Z" fill="#4987E5"/>
<path d="M191.992 353.616V329.543C191.992 325.633 195.162 322.463 199.072 322.463H250.172C254.082 322.463 257.252 325.633 257.252 329.543V353.616C257.252 357.526 254.082 360.696 250.172 360.696H199.072C195.161 360.696 191.992 357.526 191.992 353.616Z" fill="#0067BD"/>
<path d="M239.733 338.683L231.058 350.99L215.948 329.551L197.806 355.29H228.027H234.089H251.438L239.733 338.683Z" fill="#66B1F6"/>
<path d="M235.47 331.92C235.47 334.158 233.656 335.973 231.418 335.973C229.18 335.973 227.366 334.158 227.366 331.92C227.366 329.682 229.18 327.868 231.418 327.868C233.656 327.868 235.47 329.682 235.47 331.92Z" fill="#66B1F6"/>
<path d="M346.879 353.616V329.543C346.879 325.633 350.049 322.463 353.959 322.463H405.059C408.969 322.463 412.139 325.633 412.139 329.543V353.616C412.139 357.526 408.969 360.696 405.059 360.696H353.959C350.049 360.696 346.879 357.526 346.879 353.616Z" fill="#0067BD"/>
<path d="M394.62 338.683L385.946 350.99L370.835 329.551L352.693 355.29H382.915H388.977H406.325L394.62 338.683Z" fill="#66B1F6"/>
<path d="M390.357 331.92C390.357 334.158 388.543 335.973 386.305 335.973C384.067 335.973 382.253 334.158 382.253 331.92C382.253 329.682 384.067 327.868 386.305 327.868C388.543 327.868 390.357 329.682 390.357 331.92Z" fill="#66B1F6"/>
<path d="M414.142 353.616V329.543C414.142 325.633 417.312 322.463 421.222 322.463H472.322C476.232 322.463 479.402 325.633 479.402 329.543V353.616C479.402 357.526 476.232 360.696 472.322 360.696H421.222C417.312 360.696 414.142 357.526 414.142 353.616Z" fill="#0067BD"/>
<path d="M446.773 353.65C453.44 353.65 458.844 348.246 458.844 341.579C458.844 334.912 453.44 329.508 446.773 329.508C440.106 329.508 434.702 334.912 434.702 341.579C434.702 348.246 440.106 353.65 446.773 353.65Z" fill="white"/>
<path d="M453.819 341.579L442.322 334.941V348.217L453.819 341.579Z" fill="#0067BD"/>
<path d="M284.624 329.06H266.341V331.913H284.624V329.06Z" fill="#0067BD"/>
<path d="M322.512 334.547H266.341V337.399H322.512V334.547Z" fill="#0067BD"/>
<path d="M322.512 340.034H266.341V342.887H322.512V340.034Z" fill="#0067BD"/>
<path d="M322.512 345.521H266.341V348.374H322.512V345.521Z" fill="#0067BD"/>
<path d="M306.797 351.009H266.341V353.861H306.797V351.009Z" fill="#0067BD"/>
<path d="M503.77 353.616V329.543C503.77 325.633 506.94 322.463 510.85 322.463H561.95C565.861 322.463 569.031 325.633 569.031 329.543V353.616C569.031 357.526 565.861 360.696 561.95 360.696H510.85C506.94 360.696 503.77 357.526 503.77 353.616Z" fill="#0067BD"/>
<path d="M551.511 338.683L542.836 350.99L527.726 329.551L509.584 355.29H539.806H545.867H563.216L551.511 338.683Z" fill="#66B1F6"/>
<path d="M547.248 331.92C547.248 334.158 545.434 335.973 543.196 335.973C540.958 335.973 539.144 334.158 539.144 331.92C539.144 329.682 540.958 327.868 543.196 327.868C545.434 327.868 547.248 329.682 547.248 331.92Z" fill="#66B1F6"/>
<path d="M618.576 329.06H578.12V331.913H618.576V329.06Z" fill="#0067BD"/>
<path d="M634.291 334.547H578.12V337.399H634.291V334.547Z" fill="#0067BD"/>
<path d="M606.205 340.034H578.12V342.887H606.205V340.034Z" fill="#0067BD"/>
<path d="M634.291 345.521H578.12V348.374H634.291V345.521Z" fill="#0067BD"/>
<path d="M618.576 351.009H578.12V353.861H618.576V351.009Z" fill="#0067BD"/>
<path d="M178.958 386.71H58.592V458.562H178.958V386.71Z" fill="white"/>
<path d="M178.958 386.71L58.592 458.562H178.958V386.71Z" fill="#C0E9FF"/>
<path d="M113.928 449.766L104.369 438.5H46.319V449.766V457.146V536.739H191.231V449.766H113.928Z" fill="#68B1F6"/>
<path d="M792.984 285.369H676.866C672.956 285.369 669.786 288.539 669.786 292.449V372.815L628.792 396.483L669.786 420.151V494.797C669.786 498.707 672.956 501.877 676.866 501.877H792.984C796.894 501.877 800.064 498.707 800.064 494.797V292.45C800.065 288.539 796.895 285.369 792.984 285.369Z" fill="#68B1F6"/>
<path d="M745.192 427.962V362.035C754.757 358.02 761.477 348.569 761.477 337.545C761.477 326.521 754.758 317.07 745.192 313.055V333.12C745.192 338.79 740.596 343.386 734.925 343.386C729.255 343.386 724.659 338.79 724.659 333.12V313.055C715.094 317.07 708.374 326.521 708.374 337.545C708.374 348.569 715.094 358.02 724.659 362.035V427.962C718.429 431.531 714.222 438.23 714.222 445.925C714.222 454.715 719.709 462.206 727.436 465.21V448.919C727.436 444.783 730.789 441.43 734.925 441.43C739.061 441.43 742.414 444.783 742.414 448.919V465.21C750.142 462.206 755.628 454.715 755.628 445.925C755.629 438.23 751.422 431.531 745.192 427.962Z" fill="white"/>
<path d="M734.925 428.792C732.448 428.792 730.441 426.785 730.441 424.308V365.97C730.441 363.493 732.449 361.486 734.925 361.486C737.402 361.486 739.409 363.494 739.409 365.97V424.307C739.41 426.784 737.402 428.792 734.925 428.792Z" fill="#DCF1FF"/>
<path d="M194.16 279.981L169.853 265.947V234.344C169.853 230.434 166.683 227.264 162.773 227.264H9.284C5.373 227.264 2.20398 230.434 2.20398 234.344V322.764C2.20398 326.674 5.374 329.844 9.284 329.844H162.772C166.682 329.844 169.852 326.674 169.852 322.764V294.014L194.16 279.981Z" fill="#68B1F6"/>
<path d="M52.166 287.965C57.3636 287.965 61.577 283.752 61.577 278.554C61.577 273.356 57.3636 269.143 52.166 269.143C46.9685 269.143 42.755 273.356 42.755 278.554C42.755 283.752 46.9685 287.965 52.166 287.965Z" fill="white"/>
<path d="M86.028 287.965C91.2255 287.965 95.439 283.752 95.439 278.554C95.439 273.356 91.2255 269.143 86.028 269.143C80.8304 269.143 76.6169 273.356 76.6169 278.554C76.6169 283.752 80.8304 287.965 86.028 287.965Z" fill="white"/>
<path d="M129.301 278.554C129.301 283.752 125.088 287.965 119.89 287.965C114.692 287.965 110.479 283.752 110.479 278.554C110.479 273.356 114.693 269.143 119.89 269.143C125.087 269.143 129.301 273.357 129.301 278.554Z" fill="white"/>
<path d="M755.348 227.405C786.406 227.405 811.583 202.228 811.583 171.17C811.583 140.112 786.406 114.934 755.348 114.934C729.069 114.934 707.004 132.962 700.835 157.323L676.853 171.169L700.835 185.015C707.004 209.378 729.068 227.405 755.348 227.405Z" fill="#68B1F6"/>
<path d="M784.289 150.352C777.376 143.439 766.169 143.439 759.256 150.352L755.165 154.443L751.074 150.352C744.161 143.439 732.954 143.439 726.041 150.352C719.128 157.265 719.128 168.472 726.041 175.385L730.132 179.476L755.165 204.509L784.289 175.386C791.202 168.472 791.202 157.264 784.289 150.352Z" fill="white"/>
<path d="M765.507 562.346C765.507 560.748 764.212 559.453 762.614 559.453H63.667C62.069 559.453 60.775 560.748 60.775 562.346C60.775 563.944 62.07 565.239 63.667 565.239H157.616C159.213 565.239 160.508 566.534 160.508 568.132C160.508 569.73 159.213 571.025 157.616 571.025H103.966C102.368 571.025 101.074 572.32 101.074 573.917C101.074 575.514 102.369 576.81 103.966 576.81H677.08C678.677 576.81 679.972 575.515 679.972 573.917C679.972 572.32 678.677 571.025 677.08 571.025H635.035C633.437 571.025 632.142 569.73 632.142 568.132C632.142 566.535 633.437 565.239 635.035 565.239H762.615C764.212 565.239 765.507 563.944 765.507 562.346Z" fill="#004688"/>
<path d="M47.645 565.239H24.274C22.676 565.239 21.381 563.944 21.381 562.346C21.381 560.748 22.676 559.453 24.274 559.453H47.645C49.243 559.453 50.538 560.748 50.538 562.346C50.538 563.944 49.243 565.239 47.645 565.239Z" fill="#004688"/>
<path d="M744.266 576.809H692.223C690.625 576.809 689.33 575.514 689.33 573.916C689.33 572.318 690.625 571.023 692.223 571.023H744.266C745.864 571.023 747.159 572.318 747.159 573.916C747.158 575.514 745.863 576.809 744.266 576.809Z" fill="#004688"/>
<path d="M88.417 576.809H76.205C74.607 576.809 73.312 575.514 73.312 573.916C73.312 572.318 74.607 571.023 76.205 571.023H88.417C90.015 571.023 91.3101 572.318 91.3101 573.916C91.3101 575.514 90.015 576.809 88.417 576.809Z" fill="#004688"/>
<path d="M785.037 565.239H775.922C774.324 565.239 773.03 563.944 773.03 562.346C773.03 560.748 774.325 559.453 775.922 559.453H785.037C786.635 559.453 787.929 560.748 787.929 562.346C787.929 563.944 786.635 565.239 785.037 565.239Z" fill="#004688"/>
<path d="M475.185 39.954H470.208C460.95 16.552 438.137 -0.0100098 411.442 -0.0100098C378.388 -0.0100098 351.277 25.373 348.501 57.708H342.22C330.064 57.708 320.209 67.563 320.209 79.719C320.209 91.875 330.063 101.73 342.22 101.73H361.384H403.102H423.179H461.499H475.184C492.243 101.73 506.072 87.901 506.072 70.842C506.073 53.784 492.244 39.954 475.185 39.954Z" fill="white"/>
<path d="M451.584 80.856L413.141 34.939L374.698 80.856H394.496V111.624H431.786V80.856H451.584Z" fill="#C0E9FF"/>
</svg>
