<svg width="262" height="70" viewBox="0 0 262 70" fill="none" xmlns="http://www.w3.org/2000/svg">
<path d="M261.281 5.24701C261.281 2.64701 259.173 0.540009 256.574 0.540009C253.975 0.540009 251.867 2.64801 251.867 5.24701C251.867 7.84701 253.974 9.95398 256.574 9.95398C259.174 9.95398 261.281 7.84701 261.281 5.24701Z" fill="#66B1F6"/>
<path d="M256.574 39.707C259.174 39.707 261.281 37.5996 261.281 35C261.281 32.4004 259.174 30.293 256.574 30.293C253.974 30.293 251.867 32.4004 251.867 35C251.867 37.5996 253.974 39.707 256.574 39.707Z" fill="#66B1F6"/>
<path d="M261.281 64.753C261.281 62.153 259.173 60.046 256.574 60.046C253.975 60.046 251.867 62.154 251.867 64.753C251.867 67.353 253.974 69.46 256.574 69.46C259.174 69.46 261.281 67.352 261.281 64.753Z" fill="#66B1F6"/>
<path d="M233.305 5.24701C233.305 2.64701 231.198 0.540009 228.598 0.540009C225.998 0.540009 223.891 2.64801 223.891 5.24701C223.891 7.84701 225.998 9.95398 228.598 9.95398C231.197 9.95498 233.305 7.84701 233.305 5.24701Z" fill="#66B1F6"/>
<path d="M228.597 39.707C231.197 39.707 233.304 37.5996 233.304 35C233.304 32.4004 231.197 30.293 228.597 30.293C225.997 30.293 223.89 32.4004 223.89 35C223.89 37.5996 225.997 39.707 228.597 39.707Z" fill="#66B1F6"/>
<path d="M233.305 64.753C233.305 62.153 231.198 60.046 228.598 60.046C225.998 60.046 223.891 62.154 223.891 64.753C223.891 67.353 225.998 69.46 228.598 69.46C231.197 69.46 233.305 67.352 233.305 64.753Z" fill="#66B1F6"/>
<path d="M205.328 5.24701C205.328 2.64701 203.221 0.540009 200.621 0.540009C198.021 0.540009 195.914 2.64801 195.914 5.24701C195.914 7.84701 198.022 9.95398 200.621 9.95398C203.22 9.95498 205.328 7.84701 205.328 5.24701Z" fill="#66B1F6"/>
<path d="M205.328 35C205.328 32.4 203.221 30.293 200.621 30.293C198.021 30.293 195.914 32.401 195.914 35C195.914 37.599 198.022 39.707 200.621 39.707C203.22 39.707 205.328 37.6 205.328 35Z" fill="#66B1F6"/>
<path d="M205.328 64.753C205.328 62.153 203.221 60.046 200.621 60.046C198.021 60.046 195.914 62.154 195.914 64.753C195.914 67.353 198.022 69.46 200.621 69.46C203.22 69.46 205.328 67.352 205.328 64.753Z" fill="#66B1F6"/>
<path d="M177.351 5.24701C177.351 2.64701 175.243 0.540009 172.644 0.540009C170.045 0.540009 167.937 2.64801 167.937 5.24701C167.937 7.84701 170.045 9.95398 172.644 9.95398C175.243 9.95398 177.351 7.84701 177.351 5.24701Z" fill="#66B1F6"/>
<path d="M172.643 39.707C175.243 39.707 177.35 37.5996 177.35 35C177.35 32.4004 175.243 30.293 172.643 30.293C170.043 30.293 167.936 32.4004 167.936 35C167.936 37.5996 170.043 39.707 172.643 39.707Z" fill="#66B1F6"/>
<path d="M177.351 64.753C177.351 62.153 175.243 60.046 172.644 60.046C170.045 60.046 167.937 62.154 167.937 64.753C167.937 67.353 170.045 69.46 172.644 69.46C175.243 69.46 177.351 67.352 177.351 64.753Z" fill="#66B1F6"/>
<path d="M149.374 5.24701C149.374 2.64701 147.267 0.540009 144.667 0.540009C142.067 0.540009 139.96 2.64801 139.96 5.24701C139.96 7.84701 142.068 9.95398 144.667 9.95398C147.267 9.95498 149.374 7.84701 149.374 5.24701Z" fill="#66B1F6"/>
<path d="M144.667 39.707C147.267 39.707 149.374 37.5996 149.374 35C149.374 32.4004 147.267 30.293 144.667 30.293C142.067 30.293 139.96 32.4004 139.96 35C139.96 37.5996 142.067 39.707 144.667 39.707Z" fill="#66B1F6"/>
<path d="M149.374 64.753C149.374 62.153 147.267 60.046 144.667 60.046C142.067 60.046 139.96 62.154 139.96 64.753C139.96 67.353 142.068 69.46 144.667 69.46C147.267 69.46 149.374 67.352 149.374 64.753Z" fill="#66B1F6"/>
<path d="M121.397 5.24701C121.397 2.64701 119.289 0.540009 116.69 0.540009C114.09 0.540009 111.983 2.64801 111.983 5.24701C111.983 7.84701 114.091 9.95398 116.69 9.95398C119.29 9.95498 121.397 7.84701 121.397 5.24701Z" fill="#66B1F6"/>
<path d="M121.397 35C121.397 32.4 119.289 30.293 116.69 30.293C114.09 30.293 111.983 32.401 111.983 35C111.983 37.599 114.091 39.707 116.69 39.707C119.29 39.707 121.397 37.6 121.397 35Z" fill="#66B1F6"/>
<path d="M121.397 64.753C121.397 62.153 119.289 60.046 116.69 60.046C114.09 60.046 111.983 62.154 111.983 64.753C111.983 67.353 114.091 69.46 116.69 69.46C119.29 69.46 121.397 67.352 121.397 64.753Z" fill="#66B1F6"/>
<path d="M93.42 5.24701C93.42 2.64701 91.313 0.540009 88.713 0.540009C86.113 0.540009 84.006 2.64801 84.006 5.24701C84.006 7.84701 86.114 9.95398 88.713 9.95398C91.313 9.95498 93.42 7.84701 93.42 5.24701Z" fill="#66B1F6"/>
<path d="M88.713 39.707C91.3126 39.707 93.42 37.5996 93.42 35C93.42 32.4004 91.3126 30.293 88.713 30.293C86.1134 30.293 84.006 32.4004 84.006 35C84.006 37.5996 86.1134 39.707 88.713 39.707Z" fill="#66B1F6"/>
<path d="M93.42 64.753C93.42 62.153 91.313 60.046 88.713 60.046C86.113 60.046 84.006 62.154 84.006 64.753C84.006 67.353 86.114 69.46 88.713 69.46C91.313 69.46 93.42 67.352 93.42 64.753Z" fill="#66B1F6"/>
<path d="M65.444 5.24701C65.444 2.64701 63.336 0.540009 60.737 0.540009C58.138 0.540009 56.03 2.64801 56.03 5.24701C56.03 7.84701 58.138 9.95398 60.737 9.95398C63.336 9.95398 65.444 7.84701 65.444 5.24701Z" fill="#66B1F6"/>
<path d="M60.736 39.707C63.3356 39.707 65.443 37.5996 65.443 35C65.443 32.4004 63.3356 30.293 60.736 30.293C58.1364 30.293 56.029 32.4004 56.029 35C56.029 37.5996 58.1364 39.707 60.736 39.707Z" fill="#66B1F6"/>
<path d="M65.444 64.753C65.444 62.153 63.336 60.046 60.737 60.046C58.138 60.046 56.03 62.154 56.03 64.753C56.03 67.353 58.138 69.46 60.737 69.46C63.336 69.46 65.444 67.352 65.444 64.753Z" fill="#66B1F6"/>
<path d="M37.467 5.24701C37.467 2.64701 35.359 0.540009 32.76 0.540009C30.16 0.540009 28.053 2.64801 28.053 5.24701C28.053 7.84701 30.16 9.95398 32.76 9.95398C35.359 9.95498 37.467 7.84701 37.467 5.24701Z" fill="#66B1F6"/>
<path d="M37.467 35C37.467 32.4 35.359 30.293 32.76 30.293C30.16 30.293 28.053 32.401 28.053 35C28.053 37.599 30.16 39.707 32.76 39.707C35.359 39.707 37.467 37.6 37.467 35Z" fill="#66B1F6"/>
<path d="M37.467 64.753C37.467 62.153 35.359 60.046 32.76 60.046C30.16 60.046 28.053 62.154 28.053 64.753C28.053 67.353 30.16 69.46 32.76 69.46C35.359 69.46 37.467 67.352 37.467 64.753Z" fill="#66B1F6"/>
<path d="M9.48999 5.24701C9.48999 2.64701 7.38199 0.540009 4.78299 0.540009C2.18399 0.540009 0.0759888 2.64801 0.0759888 5.24701C0.0759888 7.84701 2.18399 9.95398 4.78299 9.95398C7.38199 9.95398 9.48999 7.84701 9.48999 5.24701Z" fill="#66B1F6"/>
<path d="M9.48999 35C9.48999 32.4 7.38199 30.293 4.78299 30.293C2.18399 30.293 0.0759888 32.401 0.0759888 35C0.0759888 37.599 2.18399 39.707 4.78299 39.707C7.38199 39.707 9.48999 37.6 9.48999 35Z" fill="#66B1F6"/>
<path d="M9.48999 64.753C9.48999 62.153 7.38199 60.046 4.78299 60.046C2.18399 60.046 0.0759888 62.154 0.0759888 64.753C0.0759888 67.353 2.18399 69.46 4.78299 69.46C7.38199 69.46 9.48999 67.352 9.48999 64.753Z" fill="#66B1F6"/>
</svg>
